<svg width="468.32" height="120.8" xmlns="http://www.w3.org/2000/svg" viewBox="15.84 14.6 468.32 120.8" style="background:0 0" preserveAspectRatio="xMidYMid"><defs><filter id="editing-hole" x="-100%" y="-100%" width="300%" height="300%"><feFlood flood-color="#000" result="black"/><feMorphology operator="dilate" radius="2" in="SourceGraphic" result="erode"/><feGaussianBlur in="erode" stdDeviation="4" result="blur"/><feOffset in="blur" dx="2" dy="2" result="offset"/><feComposite operator="atop" in="offset" in2="black" result="merge"/><feComposite operator="in" in="merge" in2="SourceGraphic" result="inner-shadow"/></filter></defs><g filter="url(#editing-hole)"><path d="M93.07 99h-7.36l11.58-42.24h13.38l2.94 24.13 11.91-24.13h11.2l1.15 31.62q.25 6.27 3.33 8.19-.71 1.28-2.76 2.49-2.04 1.22-4.76 1.22-2.72 0-4.32-.77t-2.5-2.05q-1.6-2.3-1.6-6.72V70.97L112.65 99h-7.93l-4.48-28.74L93.07 99zm66.24-3.52q-1.99 4.8-8.32 4.8-3.27 0-5.31-2.24-1.73-1.98-1.73-3.97 0-5.18 2.37-15.29l2.36-12.42 13-1.28-3.91 20.22q-1.09 4.74-1.09 6.4 0 3.65 2.63 3.78zm-9.47-38.02q0-2.49 2.08-3.84 2.08-1.34 5.08-1.34 3.01 0 4.84 1.34 1.82 1.35 1.82 3.84 0 2.5-2.02 3.78-2.01 1.28-5.02 1.28t-4.9-1.28q-1.88-1.28-1.88-3.78zm41.66 31.68q1.22 1.54 1.22 4.52 0 2.97-2.28 4.8-2.27 1.82-6.24 1.82-2.3 0-5.88-.51-7.04-1.09-9.06-1.09-2.02 0-2.85.1-.83.09-2.17.22l7.74-42.24H186l-6.4 35.2q.83.13 1.6.13h1.6q5.37 0 8.7-2.95zm8.29 7.94q-1.51-1.66-2.18-4.29-.67-2.62-.67-6.91t1.47-8.19q1.47-3.91 4.16-6.72 5.51-5.89 14.59-5.89 3.27 0 5.64 1.09l10.94-1.09L229 90.04q-.19.77-.19 2.18 0 1.4.87 2.3.86.9 2.14 1.02-.64 2.18-2.98 3.46-2.33 1.28-4.96 1.28-2.62 0-4.38-.99-1.76-.99-2.27-2.66-1.03 1.6-3.2 2.63-2.18 1.02-5.09 1.02-2.91 0-5.28-.77t-3.87-2.43zm13.5-25.98q-.73 1.15-1.37 3.1-.64 1.95-1.7 7.17-1.06 5.21-1.06 8.93 0 3.71.58 4.8.58 1.08 1.6 1.08 2.05 0 3.55-1.95 1.51-1.95 2.08-5.41l3.39-18.75q-1.34-1.15-2.91-1.15t-2.49.51q-.93.51-1.67 1.67zm25.76 17.53Q237 87.16 237 84.34q0-1.53.77-2.78.77-1.25 2.31-1.44h12.6q2.12 0 2.76-1.28 1.02.58 1.47 1.79.45 1.22.45 2.5t-1 2.53q-.99 1.24-2.46 1.37h-11.71q-1.35 0-1.99.42-.64.41-1.15 1.18zm49.79 11.65q-7.74 0-7.74-6.02.06-1.66.58-4.48l1.15-5.88q1.73-8.32 1.73-10.18 0-3.71-2.18-3.71-3.65 0-5.57 9.53L273.04 99l-12.87 1.28 6.66-33.98 10.49-1.22-1.02 6.27q3.01-6.27 12.22-6.27 4.48 0 6.37 1.89 1.89 1.89 1.89 6.11 0 3.97-2.05 13.25-.96 4.16-.96 5.73 0 1.56.87 2.46.86.9 2.14 1.02-.64 2.18-2.85 3.46-2.21 1.28-5.09 1.28zm27.01 0q-14.08 0-14.08-13.25 0-9.41 5.19-15.49 5.5-6.46 15.04-6.46 6.91 0 10.43 3.2 3.52 3.2 3.52 9.92 0 10.24-5.51 16.19-5.37 5.89-14.59 5.89zm1.67-27.84q-.77 1.73-1.38 4.32-.61 2.59-1.38 6.69-.76 4.09-.76 9.15 0 1.66.54 2.75t2.02 1.09q1.47 0 2.4-.7.92-.71 1.63-2.37 1.28-2.95 2.3-8.42 1.03-5.47 1.12-7.84.1-2.37.1-4.13 0-1.76-.51-2.91-.52-1.15-1.96-1.15t-2.4.9q-.96.89-1.72 2.62zm45.44-4.99q2.11-2.37 5.76-2.37 2.24 0 3.96 1.22 1.73 1.21 1.73 3.48 0 2.28-.7 4.71-.71 2.43-1.79 4.93-2.18 4.86-5.19 8.89-4.22 5.83-8.29 8.9-4.06 3.07-8.48 3.07-3.58 0-5.76-.83-.38-13.44-.86-18.24-.48-4.8-.86-7.43-.64-5.12-2.56-6.33 1.47-1.28 2.91-1.83 1.44-.54 4.41-.54 2.98 0 5.09 2.34 2.11 2.33 2.53 6.46.42 4.13.42 9.12 0 4.99-.39 11.01 1.99-1.41 4.1-5.7 2.88-5.95 3.9-13.12.32-2.17.32-4.48 0-2.3-.25-3.26zm15.96 29.63q-1.5-1.66-2.17-4.29-.67-2.62-.67-6.91t1.47-8.19q1.47-3.91 4.16-6.72 5.5-5.89 14.59-5.89 3.26 0 5.63 1.09l10.95-1.09-4.74 24.96q-.19.77-.19 2.18 0 1.4.86 2.3.87.9 2.15 1.02-.64 2.18-2.98 3.46-2.34 1.28-4.96 1.28t-4.38-.99q-1.76-.99-2.28-2.66-1.02 1.6-3.2 2.63-2.17 1.02-5.08 1.02-2.92 0-5.28-.77-2.37-.77-3.88-2.43zm13.51-25.98q-.74 1.15-1.38 3.1-.64 1.95-1.69 7.17-1.06 5.21-1.06 8.93 0 3.71.58 4.8.57 1.08 1.6 1.08 2.04 0 3.55-1.95 1.5-1.95 2.08-5.41l3.39-18.75q-1.34-1.15-2.91-1.15t-2.5.51q-.93.51-1.66 1.67z" fill="#ccc"/></g><style/></svg>